/* XPM */
static char * maximize_inactive_xpm[] = {
"20 16 3 1",
" 	c None",
".	c #2D2D2D",
"+	c #AAAAAA",
"....................",
"....................",
"....................",
"....................",
"......++++++++......",
"......++++++++......",
"......++....++......",
"......++....++......",
"......++....++......",
"......++....++......",
"......++++++++......",
"......++++++++......",
"....................",
"....................",
"....................",
"...................."};
